<svg width="26" height="24" viewBox="0 0 26 24" fill="none" xmlns="http://www.w3.org/2000/svg">
<g clip-path="url(#clip0_3_448)">
<path d="M20.1826 7.74583C20.2259 8.40667 20.1717 9.15417 20.0417 9.98833L19.2509 15.0692C18.5792 19.305 16.6184 20.735 12.3826 20.0742L7.30174 19.2725C5.83924 19.045 4.71257 18.655 3.88924 18.07C2.31841 16.9758 1.86341 15.1775 2.29674 12.4042L3.09841 7.32333C3.77007 3.0875 5.73091 1.6575 9.96674 2.31833L15.0476 3.12C18.4492 3.65083 20.0417 5.0375 20.1826 7.74583Z" stroke="#292D32" stroke-width="1.5" stroke-linecap="round" stroke-linejoin="round"/>
<path d="M22.2083 14.5925L20.5833 19.4783C19.2292 23.5517 17.0625 24.635 12.9892 23.2808L8.10333 21.6558C5.64416 20.8433 4.27916 19.7167 3.88916 18.07C4.71249 18.655 5.83916 19.045 7.30166 19.2725L12.3825 20.0742C16.6183 20.735 18.5792 19.305 19.2508 15.0692L20.0417 9.98833C20.1717 9.15417 20.2258 8.40667 20.1825 7.74583C22.7717 9.12167 23.335 11.2017 22.2083 14.5925Z" stroke="#292D32" stroke-width="1.5" stroke-linecap="round" stroke-linejoin="round"/>
<path d="M8.92675 9.72833C9.9678 9.72833 10.8117 8.88438 10.8117 7.84333C10.8117 6.80227 9.9678 5.95833 8.92675 5.95833C7.88569 5.95833 7.04175 6.80227 7.04175 7.84333C7.04175 8.88438 7.88569 9.72833 8.92675 9.72833Z" stroke="#292D32" stroke-width="1.5" stroke-linecap="round" stroke-linejoin="round"/>
</g>
<defs>
<clipPath id="clip0_3_448">
<rect width="26" height="26" fill="white"/>
</clipPath>
</defs>
</svg>
