<svg width="27" height="27" viewBox="0 0 27 27" fill="none" xmlns="http://www.w3.org/2000/svg">
<path d="M10.125 14.625C9.38246 14.9963 8.76371 15.5475 8.30246 16.2338C8.04371 16.6275 8.04371 17.1225 8.30246 17.5162C8.76371 18.2025 9.38246 18.7537 10.125 19.125" stroke="#292D32" stroke-width="1.5" stroke-linecap="round" stroke-linejoin="round"/>
<path d="M17.1113 14.625C17.8538 14.9963 18.4726 15.5475 18.9338 16.2338C19.1926 16.6275 19.1926 17.1225 18.9338 17.5162C18.4726 18.2025 17.8538 18.7537 17.1113 19.125" stroke="#292D32" stroke-width="1.5" stroke-linecap="round" stroke-linejoin="round"/>
<path d="M10.125 24.75H16.875C22.5 24.75 24.75 22.5 24.75 16.875V10.125C24.75 4.5 22.5 2.25 16.875 2.25H10.125C4.5 2.25 2.25 4.5 2.25 10.125V16.875C2.25 22.5 4.5 24.75 10.125 24.75Z" stroke="#292D32" stroke-width="1.5" stroke-linecap="round" stroke-linejoin="round"/>
<path d="M2.50879 9.01125L24.1313 9" stroke="#292D32" stroke-width="1.5" stroke-linecap="round" stroke-linejoin="round"/>
</svg>
