<svg width="26" height="26" viewBox="0 0 26 26" fill="none" xmlns="http://www.w3.org/2000/svg">
<path d="M15.1667 17.3334C15.1667 19.2509 14.3326 20.9842 13.0001 22.165C11.8517 23.205 10.3351 23.8334 8.66675 23.8334C5.08091 23.8334 2.16675 20.9192 2.16675 17.3334C2.16675 14.3434 4.20341 11.8084 6.95508 11.0609C7.70258 12.9459 9.30592 14.3975 11.2884 14.9392C11.8301 15.0909 12.4042 15.1667 13.0001 15.1667C13.5959 15.1667 14.1701 15.0909 14.7117 14.9392C15.0042 15.6759 15.1667 16.4884 15.1667 17.3334Z" stroke="#292D32" stroke-width="1.5" stroke-linecap="round" stroke-linejoin="round"/>
<path d="M19.5 8.66669C19.5 9.51169 19.3375 10.3242 19.045 11.0609C18.2975 12.9459 16.6942 14.3975 14.7117 14.9392C14.17 15.0909 13.5958 15.1667 13 15.1667C12.4042 15.1667 11.83 15.0909 11.2883 14.9392C9.30583 14.3975 7.7025 12.9459 6.955 11.0609C6.6625 10.3242 6.5 9.51169 6.5 8.66669C6.5 5.08085 9.41417 2.16669 13 2.16669C16.5858 2.16669 19.5 5.08085 19.5 8.66669Z" stroke="#292D32" stroke-width="1.5" stroke-linecap="round" stroke-linejoin="round"/>
<path d="M23.8333 17.3334C23.8333 20.9192 20.9192 23.8334 17.3333 23.8334C15.665 23.8334 14.1483 23.205 13 22.165C14.3325 20.9842 15.1667 19.2509 15.1667 17.3334C15.1667 16.4884 15.0042 15.6759 14.7117 14.9392C16.6942 14.3975 18.2975 12.9459 19.045 11.0609C21.7967 11.8084 23.8333 14.3434 23.8333 17.3334Z" stroke="#292D32" stroke-width="1.5" stroke-linecap="round" stroke-linejoin="round"/>
</svg>
