<svg width="27" height="27" viewBox="0 0 27 27" fill="none" xmlns="http://www.w3.org/2000/svg">
<path d="M2.2417 10.0875V7.8458C2.2417 4.4833 4.48337 2.24164 7.84587 2.24164H19.0542C22.4167 2.24164 24.6584 4.4833 24.6584 7.8458V10.0875" stroke="#292D32" stroke-width="1.5" stroke-miterlimit="10" stroke-linecap="round" stroke-linejoin="round"/>
<path d="M2.2417 16.8125V19.0542C2.2417 22.4167 4.48337 24.6583 7.84587 24.6583H19.0542C22.4167 24.6583 24.6584 22.4167 24.6584 19.0542V16.8125" stroke="#292D32" stroke-width="1.5" stroke-miterlimit="10" stroke-linecap="round" stroke-linejoin="round"/>
<path d="M7.50952 10.3789L13.4499 13.8199L19.3455 10.4013" stroke="#292D32" stroke-width="1.5" stroke-linecap="round" stroke-linejoin="round"/>
<path d="M13.45 19.9172V13.8087" stroke="#292D32" stroke-width="1.5" stroke-linecap="round" stroke-linejoin="round"/>
<path d="M12.0601 7.05001L8.47339 9.04513C7.66639 9.49346 6.9939 10.6255 6.9939 11.5558V15.3554C6.9939 16.2857 7.65518 17.4177 8.47339 17.8661L12.0601 19.8611C12.8222 20.287 14.0776 20.287 14.8509 19.8611L18.4376 17.8661C19.2446 17.4177 19.9171 16.2857 19.9171 15.3554V11.5558C19.9171 10.6255 19.2558 9.49346 18.4376 9.04513L14.8509 7.05001C14.0776 6.61289 12.8222 6.61289 12.0601 7.05001Z" stroke="#292D32" stroke-width="1.5" stroke-linecap="round" stroke-linejoin="round"/>
</svg>
