<svg width="26" height="26" viewBox="0 0 26 26" fill="none" xmlns="http://www.w3.org/2000/svg">
<path d="M11.3751 21.5583V4.44167C11.3751 2.81667 10.6817 2.16667 8.95925 2.16667H4.58258C2.86008 2.16667 2.16675 2.81667 2.16675 4.44167V21.5583C2.16675 23.1833 2.86008 23.8333 4.58258 23.8333H8.95925C10.6817 23.8333 11.3751 23.1833 11.3751 21.5583Z" stroke="#292D32" stroke-width="1.5" stroke-linecap="round" stroke-linejoin="round"/>
<path d="M23.8333 9.23001V4.31167C23.8333 2.78417 23.14 2.16667 21.4175 2.16667H17.0408C15.3183 2.16667 14.625 2.78417 14.625 4.31167V9.21917C14.625 10.7575 15.3183 11.3642 17.0408 11.3642H21.4175C23.14 11.375 23.8333 10.7575 23.8333 9.23001Z" stroke="#292D32" stroke-width="1.5" stroke-linecap="round" stroke-linejoin="round"/>
<path d="M23.8333 21.4175V17.0408C23.8333 15.3183 23.14 14.625 21.4175 14.625H17.0408C15.3183 14.625 14.625 15.3183 14.625 17.0408V21.4175C14.625 23.14 15.3183 23.8333 17.0408 23.8333H21.4175C23.14 23.8333 23.8333 23.14 23.8333 21.4175Z" stroke="#292D32" stroke-width="1.5" stroke-linecap="round" stroke-linejoin="round"/>
</svg>
